HIERARCHY
ROOT Hips
{
	OFFSET 0.000000 0.000000 0.000000
	CHANNELS 6 Xposition Yposition Zposition Xrotation Yrotation Zrotation
	JOINT LeftUpLeg_virtual
	{
		OFFSET 0.000000 0.000000 0.000000
		CHANNELS 3 Xrotation Yrotation Zrotation
		JOINT LeftUpLeg
		{
			OFFSET 10.205400 -3.823500 0.155100
			CHANNELS 3 Xrotation Yrotation Zrotation
			JOINT LeftLeg
			{
				OFFSET 0.708757 -12.982077 0.567790
				CHANNELS 3 Xrotation Yrotation Zrotation
				JOINT LeftFoot
				{
					OFFSET -0.708756 -10.717838 -2.184338
					CHANNELS 3 Xrotation Yrotation Zrotation
					JOINT LeftToeBase
					{
						OFFSET 0.108149 -7.191104 7.560241
						CHANNELS 3 Xrotation Yrotation Zrotation
						JOINT LeftToe_End
						{
							OFFSET 0.070230 0.081724 4.490308
							CHANNELS 3 Xrotation Yrotation Zrotation
							End Site
							{
								OFFSET 0 0 0
							}
						}
					}
				}
			}
		}
	}
	JOINT RightUpLeg_virtual
	{
		OFFSET 0.000000 0.000000 0.000000
		CHANNELS 3 Xrotation Yrotation Zrotation
		JOINT RightUpLeg
		{
			OFFSET -10.205400 -3.823500 0.005500
			CHANNELS 3 Xrotation Yrotation Zrotation
			JOINT RightLeg
			{
				OFFSET -0.708756 -12.982134 0.610632
				CHANNELS 3 Xrotation Yrotation Zrotation
				JOINT RightFoot
				{
					OFFSET 0.708754 -10.717769 -1.945823
					CHANNELS 3 Xrotation Yrotation Zrotation
					JOINT RightToeBase
					{
						OFFSET -0.108140 -7.191069 7.372968
						CHANNELS 3 Xrotation Yrotation Zrotation
						JOINT RightToe_End
						{
							OFFSET -0.070227 0.081735 4.479403
							CHANNELS 3 Xrotation Yrotation Zrotation
							End Site
							{
								OFFSET 0 0 0
							}
						}
					}
				}
			}
		}
	}
	JOINT Spine_virtual
	{
		OFFSET 0.000000 0.000000 0.000000
		CHANNELS 3 Xrotation Yrotation Zrotation
		JOINT Spine
		{
			OFFSET 0.000000 6.876099 0.125700
			CHANNELS 3 Xrotation Yrotation Zrotation
			JOINT Spine1
			{
				OFFSET 0.000000 5.730043 0.104720
				CHANNELS 3 Xrotation Yrotation Zrotation
				JOINT Spine1_split
				{
					OFFSET 0.000000 5.730043 0.104720
					CHANNELS 3 Xrotation Yrotation Zrotation
					JOINT Spine2
					{
						OFFSET 0.000000 5.730043 0.104720
						CHANNELS 3 Xrotation Yrotation Zrotation
						JOINT Neck_virtual
						{
							OFFSET 0.000000 0.000000 0.000000
							CHANNELS 3 Xrotation Yrotation Zrotation
							JOINT Neck
							{
								OFFSET 0.000000 10.314075 0.188496
								CHANNELS 3 Xrotation Yrotation Zrotation
								JOINT Head
								{
									OFFSET 0.000000 7.643700 -2.377400
									CHANNELS 3 Xrotation Yrotation Zrotation
									JOINT HeadTop_End
									{
										OFFSET 0.000000 43.788605 -13.619600
										CHANNELS 3 Xrotation Yrotation Zrotation
										End Site
										{
											OFFSET 0 0 0
										}
									}
								}
							}
						}
						JOINT LeftShoulder_virtual
						{
							OFFSET 0.000000 0.000000 0.000000
							CHANNELS 3 Xrotation Yrotation Zrotation
							JOINT LeftShoulder
							{
								OFFSET 2.196100 4.412489 0.087492
								CHANNELS 3 Xrotation Yrotation Zrotation
								JOINT LeftShoulder_split
								{
									OFFSET 2.196100 4.412489 0.087492
									CHANNELS 3 Xrotation Yrotation Zrotation
									JOINT LeftArm
									{
										OFFSET 8.771219 -2.981674 -0.026999
										CHANNELS 3 Xrotation Yrotation Zrotation
										JOINT LeftForeArm
										{
											OFFSET 8.512804 0.000000 -0.000000
											CHANNELS 3 Xrotation Yrotation Zrotation
											JOINT LeftHand
											{
												OFFSET 18.484802 0.000000 -0.000000
												CHANNELS 3 Xrotation Yrotation Zrotation
												End Site
												{
													OFFSET 0 0 0
												}
											}
										}
									}
								}
							}
						}
						JOINT RightShoulder_virtual
						{
							OFFSET 0.000000 0.000000 0.000000
							CHANNELS 3 Xrotation Yrotation Zrotation
							JOINT RightShoulder
							{
								OFFSET -2.196100 4.412496 0.070690
								CHANNELS 3 Xrotation Yrotation Zrotation
								JOINT RightShoulder_split
								{
									OFFSET -2.196100 4.412496 0.070690
									CHANNELS 3 Xrotation Yrotation Zrotation
									JOINT RightArm
									{
										OFFSET -8.771282 -2.981682 -0.094208
										CHANNELS 3 Xrotation Yrotation Zrotation
										JOINT RightForeArm
										{
											OFFSET -8.494598 0.000000 0.000000
											CHANNELS 3 Xrotation Yrotation Zrotation
											JOINT RightHand
											{
												OFFSET -18.483803 0.000000 0.000001
												CHANNELS 3 Xrotation Yrotation Zrotation
												End Site
												{
													OFFSET 0 0 0
												}
											}
										}
									}
								}
							}
						}
					}
				}
			}
		}
	}
}
MOTION
Frames: 8
Frame Time: 0.03333333
1.298713 30.258505 -1.056486 0.000000 0.000000 0.000000 -6.264609 -46.660806 -6.262554 -38.780875 -8.610846 17.211998 34.407382 -7.501949 -2.723599 7.464672 -6.262164 -10.072180 -4.052698 -3.573576 1.361748 0.000000 0.000000 0.000000 -5.721472 -42.830177 -6.190170 5.532970 -22.203507 -14.419887 42.241585 1.738993 -2.538023 -31.711848 -10.185123 20.927070 -2.406860 0.302381 0.044024 0.000000 0.000000 0.000000 -10.519401 -41.496869 -9.235210 7.174501 5.201401 -0.138864 12.345561 9.450484 -3.805937 1.253607 3.565456 -0.032899 0.000000 0.000000 0.000000 10.373207 8.622631 -4.279983 -6.406687 -4.127298 3.581559 -13.017300 21.593008 1.377785 0.000000 0.000000 0.000000 11.419341 9.078957 -3.972647 2.750843 -2.416144 -4.132435 -2.726918 -0.860566 -3.851404 -15.082253 -1.434584 -58.004699 18.102826 -54.537114 8.304406 0.000000 0.000000 0.000000 11.839143 9.208948 -4.075047 1.379794 11.021626 11.245733 -0.449984 2.255853 2.230031 3.950541 -19.633439 62.372365 -0.474271 47.541802 3.070558 0.000000 0.000000 0.000000 
1.244119 30.117571 -0.923672 0.000000 0.000000 0.000000 -4.406433 -45.265105 -5.254240 -39.580642 -8.856498 17.703997 34.741033 -7.117215 -2.834942 7.113545 -6.397580 -8.908265 -3.627864 -3.530811 1.217861 0.000000 0.000000 0.000000 -4.743178 -41.198116 -5.746292 4.990398 -21.612976 -13.836243 41.702878 2.319914 -4.188742 -31.887353 -10.365246 22.744036 -2.381860 0.105723 0.158639 0.000000 0.000000 0.000000 -8.358219 -40.918198 -8.168011 7.163032 5.321018 -0.055741 12.388049 9.463685 -3.833243 0.458287 1.888737 0.337854 0.000000 0.000000 0.000000 10.156511 8.687511 -4.110248 -6.371299 -3.999360 3.159883 -12.654797 21.599981 1.627042 0.000000 0.000000 0.000000 11.473757 9.030324 -4.071358 2.771731 -2.525590 -4.556932 -2.502954 -0.595683 -3.382161 -11.890468 -0.934240 -57.102431 19.718631 -56.635819 9.036098 0.000000 0.000000 0.000000 11.820683 9.389750 -3.837009 1.549556 11.222960 11.018165 -0.386342 2.992404 0.811707 3.240264 -19.977619 61.318802 0.569643 48.289113 1.942218 0.000000 0.000000 0.000000 
1.048554 29.795584 -1.012426 0.000000 0.000000 0.000000 -1.619490 -42.354543 -4.048210 -43.497233 -9.045897 19.084536 36.358992 -6.809016 -2.020944 7.908328 -7.812037 -7.857403 -4.029579 -3.515096 1.043025 0.000000 0.000000 0.000000 -2.380955 -37.575507 -4.960119 3.717727 -21.023090 -12.660350 42.225121 3.323647 -6.812747 -32.269311 -10.201903 24.228464 -2.064399 0.101518 0.175204 0.000000 0.000000 0.000000 -5.290733 -38.583093 -6.958121 7.455974 5.155336 -0.193328 12.455267 9.249347 -3.542527 0.230610 0.414513 0.734246 0.000000 0.000000 0.000000 10.025497 8.565957 -3.568920 -6.389892 -4.101028 2.458121 -11.964073 21.363102 1.663689 0.000000 0.000000 0.000000 11.580286 8.790824 -3.869466 2.824289 -3.027626 -4.876462 -2.605159 -0.292930 -2.577245 -6.337760 -0.208735 -55.930595 19.928581 -61.639889 8.392211 0.000000 0.000000 0.000000 11.830982 9.390912 -3.291245 1.786185 11.068233 10.372452 -0.209278 3.076781 0.127952 3.237512 -18.434542 60.138579 3.668479 49.740836 -1.285408 0.000000 0.000000 0.000000 
0.801272 29.349304 -1.326818 0.000000 0.000000 0.000000 1.822021 -38.252222 -3.011544 -50.509037 -9.204351 21.102259 38.832149 -6.496658 -0.622815 10.137140 -10.538342 -6.859700 -5.249410 -3.529441 1.348358 0.000000 0.000000 0.000000 0.938205 -32.893399 -4.240644 1.481124 -20.515131 -10.966430 44.432805 4.548967 -10.189839 -33.019638 -9.856229 25.314633 -1.759170 0.271874 0.106108 0.000000 0.000000 0.000000 -1.496439 -35.113238 -5.857405 7.911674 4.777550 -0.501237 12.511233 8.856255 -3.020729 0.559545 -0.612162 0.750997 0.000000 0.000000 0.000000 10.053971 8.254554 -2.805413 -6.613354 -4.313420 1.636375 -11.092470 21.059235 1.394773 0.000000 0.000000 0.000000 11.684919 8.436623 -3.426332 2.868499 -3.710187 -4.923607 -2.654970 -0.398416 -1.425887 0.478524 0.504195 -54.772598 18.786896 -68.532192 6.599679 0.000000 0.000000 0.000000 11.920655 9.203862 -2.594498 2.005956 10.530793 9.438205 0.312832 3.094399 0.140211 3.735783 -15.409634 59.232200 8.559141 51.735930 -6.397474 0.000000 0.000000 0.000000 
0.522000 28.826523 -1.693584 0.000000 0.000000 0.000000 5.721270 -33.592253 -2.402051 -59.531690 -9.498352 23.196849 42.251519 -5.834779 1.054371 13.713531 -13.663154 -5.154803 -6.487632 -3.468501 2.004345 0.000000 0.000000 0.000000 4.856674 -28.042996 -3.741418 -1.764225 -20.284084 -8.913832 49.136763 5.736483 -14.125593 -34.051225 -9.435047 26.246940 -1.828689 0.593569 -0.067709 0.000000 0.000000 0.000000 2.637317 -31.353983 -5.120373 8.387720 4.335221 -0.874226 12.556392 8.340891 -2.420705 1.155162 -1.222740 0.552557 0.000000 0.000000 0.000000 10.327098 7.791416 -2.026970 -7.308038 -4.473157 0.820158 -10.294805 20.880071 0.928592 0.000000 0.000000 0.000000 11.822991 8.022062 -2.890928 2.921670 -4.279322 -4.601155 -2.197862 -1.114426 -0.374226 7.112268 0.899439 -54.225029 16.415369 -75.575961 3.741756 0.000000 0.000000 0.000000 12.152953 8.831780 -1.936389 2.182066 9.470421 8.262847 1.135386 3.116901 0.432370 4.381557 -11.525282 58.937327 14.770745 53.967773 -12.994454 0.000000 0.000000 0.000000 
0.264314 28.213261 -2.002970 0.000000 0.000000 0.000000 9.971860 -29.002554 -2.239656 -69.673305 -9.721243 24.635975 46.032777 -4.256211 2.529199 17.616502 -16.060215 -2.200275 -6.443431 -3.171472 2.525682 0.000000 0.000000 0.000000 9.104738 -23.754807 -3.490342 -6.229054 -20.456376 -6.725367 56.812540 6.310535 -18.292686 -35.137256 -9.042042 27.274284 -2.367639 0.974176 -0.299618 0.000000 0.000000 0.000000 7.165413 -28.138255 -4.611969 8.746129 4.058029 -1.195639 12.606378 7.775481 -1.860513 1.799153 -1.002121 0.364891 0.000000 0.000000 0.000000 10.822476 7.292156 -1.391317 -8.763336 -4.586190 0.040005 -9.758152 20.977007 0.357353 0.000000 0.000000 0.000000 12.005879 7.612048 -2.318942 2.970856 -4.381703 -3.801779 -1.656300 -2.033934 0.426999 12.536746 0.470704 -54.752169 13.696893 -80.595898 0.733848 0.000000 0.000000 0.000000 12.539587 8.344773 -1.456813 2.355543 7.753136 6.788071 2.167270 2.890115 0.946708 4.354486 -7.828456 59.314900 21.321207 55.636358 -20.161486 0.000000 0.000000 0.000000 
0.098538 27.458008 -2.308926 0.000000 0.000000 0.000000 14.354491 -24.558664 -2.493825 -80.219144 -9.642244 24.924486 49.677117 -1.612395 3.604385 20.709859 -17.534124 1.084680 -5.103023 -2.618099 2.334610 0.000000 0.000000 0.000000 13.171600 -20.399410 -3.547020 -11.869741 -20.945081 -4.491109 66.773186 5.752433 -22.105144 -36.162720 -9.118975 28.534794 -3.369468 1.198428 -0.395001 0.000000 0.000000 0.000000 11.896682 -25.446966 -4.281636 8.999731 4.002458 -1.444480 12.689925 7.235456 -1.378299 2.075361 -0.325724 0.475550 0.000000 0.000000 0.000000 11.445612 6.791561 -0.930062 -11.216616 -4.603025 -0.619828 -9.629727 21.216980 -0.040951 0.000000 0.000000 0.000000 12.266815 7.227118 -1.789264 3.020071 -3.797759 -2.532046 -1.618628 -2.624641 1.008298 15.664745 -1.017104 -56.472977 14.377772 -82.556421 1.484836 0.000000 0.000000 0.000000 13.105916 7.812408 -1.155939 2.515148 5.344005 4.853669 3.329539 2.984630 1.266281 2.867533 -5.050667 60.556341 26.689850 56.053607 -26.514873 0.000000 0.000000 0.000000 
0.056328 26.521049 -2.502735 0.000000 0.000000 0.000000 18.526559 -20.727389 -3.033136 -90.579216 -9.611083 23.713928 53.698667 1.196305 4.496146 23.615724 -18.747688 2.959492 -4.065317 -1.941667 1.486726 0.000000 0.000000 0.000000 16.922700 -17.610550 -3.851390 -18.086433 -21.503582 -2.344492 77.464447 3.879206 -25.023516 -37.779194 -9.890818 29.231796 -4.012897 1.220396 -0.174795 0.000000 0.000000 0.000000 16.544607 -23.212367 -4.067440 9.166454 4.188834 -1.643858 12.886562 6.710205 -0.942360 1.789610 0.088568 0.459253 0.000000 0.000000 0.000000 12.107287 6.363640 -0.622120 -14.761991 -4.515487 -1.211638 -10.072982 21.516752 0.024742 0.000000 0.000000 0.000000 12.754174 6.866822 -1.313025 3.088277 -2.427967 -0.830381 -2.043828 -2.277757 0.897070 15.724170 -3.374214 -59.511643 18.344134 -81.058964 6.094791 0.000000 0.000000 0.000000 13.821619 7.280918 -0.971839 2.685678 2.393023 2.373719 4.371484 3.069791 1.473983 0.161355 -2.742361 62.625301 29.085797 54.894664 -30.222880 0.000000 0.000000 0.000000 
